<svg width="48" height="48" viewBox="0 0 48 48" fill="none" xmlns="http://www.w3.org/2000/svg">
<path d="M36.124 6.07641C34.3531 4.46263 32.2778 3.21863 30.0199 2.41734C27.7619 1.61605 25.3667 1.27361 22.9747 1.41009C20.5827 1.54656 18.242 2.15921 16.0898 3.2121C13.9376 4.265 12.0173 5.73697 10.4415 7.5417C8.86558 9.34643 7.66587 11.4476 6.91264 13.722C6.15942 15.9965 5.86784 18.3984 6.05501 20.787C6.24217 23.1756 6.90432 25.5028 8.00262 27.6321C9.10092 29.7615 10.6133 31.6502 12.451 33.1874C16.6525 36.6805 20.1629 40.9291 22.801 45.7139C22.93 45.9522 23.1211 46.1511 23.354 46.2895C23.587 46.4279 23.8531 46.5006 24.124 46.4999C24.3948 46.4998 24.6604 46.4263 24.8928 46.2874C25.1252 46.1485 25.3157 45.9493 25.444 45.7109L25.567 45.4799C28.224 40.753 31.7272 36.5548 35.902 33.0944C37.8367 31.4225 39.3925 29.3572 40.4658 27.0364C41.5391 24.7156 42.1051 22.1925 42.1261 19.6356C42.1471 17.0787 41.6227 14.5468 40.5876 12.2086C39.5526 9.87045 38.0309 7.7799 36.124 6.07641ZM24.124 26.9999C22.6406 26.9999 21.1906 26.56 19.9572 25.7359C18.7239 24.9118 17.7626 23.7405 17.1949 22.37C16.6273 20.9996 16.4787 19.4916 16.7681 18.0367C17.0575 16.5819 17.7718 15.2455 18.8207 14.1966C19.8696 13.1477 21.206 12.4334 22.6608 12.144C24.1157 11.8546 25.6237 12.0032 26.9941 12.5708C28.3646 13.1385 29.5359 14.0998 30.36 15.3331C31.1841 16.5665 31.624 18.0166 31.624 19.4999C31.6216 21.4883 30.8307 23.3946 29.4247 24.8006C28.0187 26.2066 26.1124 26.9975 24.124 26.9999Z" fill="#FF00B2"/>
</svg>
