<svg width="20" height="20" viewBox="0 0 20 20" fill="none" xmlns="http://www.w3.org/2000/svg">
<g clip-path="url(#clip0_401_2161)">
<path d="M19.998 5.88005C19.9511 4.81738 19.7789 4.0868 19.5323 3.45374C19.2779 2.78176 18.8865 2.18014 18.3737 1.68002C17.8727 1.1721 17.2661 0.777435 16.6007 0.527447C15.9629 0.281274 15.2348 0.109427 14.1703 0.0625732C13.0978 0.0117516 12.7573 0 10.0371 0C7.31699 0 6.97651 0.0117516 5.90799 0.0586052C4.84344 0.105459 4.11157 0.277459 3.47755 0.523479C2.80424 0.777435 2.20156 1.16814 1.70055 1.68002C1.19175 2.18014 0.796535 2.78573 0.545954 3.44992C0.299348 4.0868 0.127198 4.81341 0.0802616 5.87609C0.0293504 6.9467 0.0175781 7.28658 0.0175781 10.002C0.0175781 12.7173 0.0293504 13.0572 0.0762865 14.1239C0.123223 15.1865 0.295526 15.9171 0.542132 16.5502C0.796535 17.2221 1.19175 17.8238 1.70055 18.3239C2.20156 18.8318 2.80822 19.2265 3.47358 19.4765C4.11157 19.7226 4.83947 19.8945 5.90417 19.9413C6.97254 19.9883 7.31317 19.9999 10.0333 19.9999C12.7535 19.9999 13.094 19.9883 14.1625 19.9413C15.227 19.8945 15.9589 19.7226 16.5929 19.4765C17.9394 18.9568 19.0039 17.8941 19.5245 16.5502C19.771 15.9133 19.9433 15.1865 19.9902 14.1239C20.0371 13.0572 20.0489 12.7173 20.0489 10.002C20.0489 7.28658 20.0449 6.9467 19.998 5.88005ZM18.1938 14.0457C18.1507 15.0225 17.9863 15.5499 17.8493 15.9015C17.5127 16.7728 16.82 17.4643 15.9471 17.8004C15.5949 17.9372 15.0627 18.1012 14.088 18.1441C13.0313 18.1911 12.7143 18.2027 10.0411 18.2027C7.3679 18.2027 7.04699 18.1911 5.99406 18.1441C5.01559 18.1012 4.48722 17.9372 4.13496 17.8004C3.70061 17.6402 3.30525 17.3862 2.98434 17.0541C2.65166 16.7298 2.39726 16.3391 2.23673 15.9055C2.09974 15.5539 1.93539 15.0225 1.89243 14.0497C1.84534 12.9948 1.83372 12.6783 1.83372 10.0097C1.83372 7.34122 1.84534 7.02087 1.89243 5.96995C1.93539 4.99319 2.09974 4.46575 2.23673 4.11412C2.39726 3.68038 2.65166 3.28586 2.98832 2.96536C3.31305 2.63327 3.70444 2.37931 4.13894 2.21921C4.49119 2.08247 5.02354 1.9184 5.99804 1.87537C7.05479 1.82851 7.37188 1.81676 10.0449 1.81676C12.7221 1.81676 13.0391 1.82851 14.092 1.87537C15.0705 1.9184 15.5989 2.08247 15.9511 2.21921C16.3855 2.37931 16.7808 2.63327 17.1017 2.96536C17.4344 3.28967 17.6888 3.68038 17.8493 4.11412C17.9863 4.46575 18.1507 4.99701 18.1938 5.96995C18.2407 7.02484 18.2525 7.34122 18.2525 10.0097C18.2525 12.6783 18.2407 12.9908 18.1938 14.0457Z" fill="white"/>
<path d="M12.2684 6.10366H13.3333V4.24866C13.1496 4.22338 12.5177 4.1665 11.7818 4.1665C10.2463 4.1665 9.19444 5.13241 9.19444 6.90768V8.5415H7.5V10.6153H9.19444V15.8332H11.2719V10.6157H12.8978L13.1559 8.54199H11.2714V7.11331C11.2719 6.51393 11.4333 6.10366 12.2684 6.10366Z" fill="white"/>
</g>
<defs>
<clipPath id="clip0_401_2161">
<rect width="20" height="20" fill="white"/>
</clipPath>
</defs>
</svg>
