<svg width="124" height="120" viewBox="0 0 124 120" fill="none" xmlns="http://www.w3.org/2000/svg">
<g clip-path="url(#clip0_64_28)">
<path d="M74.3069 73.6812C74.6806 73.6742 75.0512 73.7498 75.3919 73.9025L75.5607 73.3493C75.1592 73.1743 74.7227 73.0929 74.2846 73.1115C72.6152 73.1115 71.4764 74.2454 71.4764 75.9178C71.4764 77.6694 72.6171 78.6208 74.1325 78.6208C74.6181 78.6363 75.1015 78.5503 75.5515 78.3682L75.4086 77.8151C75.0506 77.9668 74.6645 78.0422 74.2753 78.0363C72.9769 78.0363 72.2109 77.1974 72.2109 75.8883C72.2109 74.4814 73.0474 73.6812 74.3069 73.6812Z" fill="white"/>
<path d="M77.9516 73.1818C77.8937 73.1803 77.8361 73.1905 77.7823 73.2118C77.7285 73.2331 77.6796 73.2651 77.6387 73.3059C77.5977 73.3466 77.5655 73.3951 77.5441 73.4486C77.5226 73.5021 77.5124 73.5594 77.5139 73.6169C77.5146 73.702 77.5406 73.7849 77.5886 73.8553C77.6365 73.9256 77.7044 73.9804 77.7835 74.0126C77.8627 74.0448 77.9496 74.053 78.0335 74.0362C78.1173 74.0195 78.1943 73.9784 78.2548 73.9183C78.3153 73.8582 78.3565 73.7817 78.3734 73.6983C78.3903 73.615 78.382 73.5285 78.3496 73.4498C78.3172 73.3712 78.2621 73.3037 78.1913 73.256C78.1205 73.2084 78.0371 73.1825 77.9516 73.1818Z" fill="white"/>
<path d="M78.2948 74.6953H77.5936V78.5323H78.2948V74.6953Z" fill="white"/>
<path d="M81.5018 73.5923L80.8155 73.7767V74.6986H80.2182V75.2296H80.8155V77.3224C80.8155 77.7741 80.8878 78.1152 81.0863 78.3217C81.1842 78.4218 81.3026 78.4998 81.4335 78.5504C81.5644 78.601 81.7047 78.623 81.8449 78.6149C82.0561 78.6217 82.2667 78.5898 82.4663 78.5209L82.4347 77.9972C82.3021 78.0311 82.1655 78.0472 82.0285 78.0451C81.6372 78.0451 81.5018 77.7741 81.5018 77.2984V75.2259H82.5071V74.6949H81.5018V73.5923Z" fill="white"/>
<path d="M86.176 76.9466C86.0795 77.225 85.9905 77.5182 85.9274 77.7487H85.9126C85.8476 77.5182 85.7531 77.2177 85.664 76.9632L84.8145 74.6953H84.054L85.4822 78.2318C85.5075 78.2904 85.5232 78.3526 85.5286 78.4162C85.5197 78.4742 85.5008 78.5303 85.473 78.5821C85.3403 78.8833 85.1383 79.1492 84.8831 79.3584C84.7025 79.5103 84.494 79.6262 84.2692 79.6995L84.4547 80.2877C84.776 80.2126 85.0725 80.0564 85.3153 79.8341C85.7939 79.4229 86.137 78.7481 86.6397 77.4371L87.6913 74.7008H86.9494L86.176 76.9466Z" fill="white"/>
<path d="M103.704 15.0108C98.1156 10.1228 91.5643 6.34481 84.2284 3.76345C77.089 1.25831 69.5711 -0.0144618 62 0.000198276V0.000198276C54.43 -0.018236 46.9124 1.24887 39.7716 3.74686C32.4432 6.32822 25.8919 10.1099 20.2958 14.9942C7.83874 25.8894 1.09454 41.4458 0.775513 60.0002C1.09084 78.5472 7.84059 94.111 20.2958 104.99C25.8845 109.876 32.4339 113.656 39.7716 116.237C46.911 118.742 54.4289 120.015 62 120V120C69.5694 120.019 77.0864 118.752 84.2265 116.254C91.5569 113.672 98.1082 109.89 103.702 105.006C116.161 94.111 122.905 78.5528 123.225 60.0002C122.909 41.4513 116.161 25.8894 103.704 15.0108ZM62 119.447C33.2704 119.447 2.03309 100.839 1.33753 60.002C2.03309 19.1539 33.2741 0.551503 62 0.553347C90.7259 0.55519 121.969 19.1613 122.668 60.0002C121.963 100.845 90.724 119.447 62 119.447Z" fill="white"/>
<path d="M37.9836 35.0477C37.9947 35.3021 38.0058 35.5731 38.0114 35.8848C38.0114 35.9899 38.0114 36.0986 38.0114 36.213V40.085H38.6569V38.1379H38.6717C38.7731 38.2948 38.9096 38.4262 39.0704 38.5222C39.2313 38.6181 39.4122 38.6759 39.5991 38.6911C39.6569 38.6985 39.7152 38.7022 39.7735 38.7021C40.6193 38.7021 41.4057 38.0678 41.4057 36.7845C41.4057 35.7004 40.7528 34.9702 39.8848 34.9702C39.8141 34.9701 39.7436 34.9738 39.6733 34.9813C39.4543 35.0034 39.2436 35.0767 39.0586 35.1953C38.8735 35.3139 38.7194 35.4743 38.6086 35.6635H38.5938L38.5641 35.0513H37.978L37.9836 35.0477ZM38.6587 37.1644V36.5522C38.6621 36.4622 38.677 36.373 38.7032 36.2867C38.7549 36.063 38.8799 35.8627 39.0585 35.7172C39.2371 35.5717 39.4592 35.4892 39.69 35.4828C40.38 35.4828 40.7584 36.095 40.7584 36.8104C40.7584 37.629 40.3578 38.1895 39.6678 38.1895C39.4713 38.1911 39.2787 38.1354 39.1139 38.0292C38.949 37.923 38.8191 37.771 38.7403 37.5921C38.7173 37.5395 38.6981 37.4853 38.6828 37.4299C38.6667 37.3423 38.6586 37.2534 38.6587 37.1644V37.1644Z" fill="white"/>
<path d="M43.3478 38.6116H43.9932V36.7143C43.9947 36.6129 44.0046 36.5117 44.0229 36.4119C44.112 35.9252 44.4384 35.5785 44.8984 35.5785C44.9732 35.5774 45.0479 35.5849 45.121 35.6006V35.6006V34.9885C45.0604 34.973 44.998 34.9656 44.9355 34.9664V34.9664C44.7388 34.9711 44.5475 35.0309 44.3834 35.1389C44.2194 35.2468 44.0893 35.3986 44.0081 35.5767C43.9795 35.6319 43.9553 35.6892 43.9357 35.7481H43.9061L43.8838 35.0475H43.3125C43.3348 35.3794 43.3422 35.7408 43.3422 36.1538L43.3478 38.6116Z" fill="white"/>
<path d="M47.2281 34.4428C47.2812 34.4437 47.3339 34.4343 47.3834 34.415C47.4328 34.3957 47.4779 34.3669 47.5162 34.3302C47.5544 34.2936 47.585 34.2498 47.6062 34.2014C47.6275 34.153 47.6389 34.101 47.6398 34.0482C47.6408 33.9954 47.6313 33.9429 47.6119 33.8938C47.5925 33.8446 47.5635 33.7998 47.5267 33.7618C47.4898 33.7238 47.4458 33.6933 47.3971 33.6723C47.3484 33.6512 47.296 33.6398 47.2429 33.6388C47.1889 33.6373 47.1352 33.6468 47.0849 33.6666C47.0347 33.6864 46.9892 33.7163 46.9509 33.7542C46.9127 33.7922 46.8827 33.8375 46.8628 33.8875C46.8428 33.9374 46.8333 33.9908 46.8348 34.0445C46.8331 34.0966 46.842 34.1486 46.861 34.1972C46.8801 34.2458 46.9089 34.2901 46.9456 34.3274C46.9824 34.3646 47.0264 34.394 47.0749 34.4139C47.1235 34.4337 47.1756 34.4435 47.2281 34.4428V34.4428Z" fill="white"/>
<path d="M47.5694 35.0474H46.9165V38.617H47.5694V35.0474Z" fill="white"/>
<path d="M51.3087 38.6116L52.7184 35.042H52.0358L51.3384 37.0481C51.2197 37.3726 51.1158 37.6676 51.0342 37.97H51.0119C50.9318 37.6578 50.8352 37.3501 50.7226 37.0481L50.0177 35.042H49.3203L50.6855 38.6116H51.3087Z" fill="white"/>
<path d="M55.2335 38.6982C55.4458 38.7027 55.6562 38.6569 55.8471 38.5646C56.0381 38.4722 56.2041 38.336 56.3316 38.1672H56.3539L56.4058 38.6171H56.9919C56.9477 38.3341 56.9278 38.0479 56.9326 37.7616V36.4266C56.9326 35.7112 56.6655 34.9663 55.5674 34.9663C55.1537 34.9647 54.7478 35.0777 54.3952 35.2927L54.5435 35.7204C54.8224 35.5492 55.1432 35.4574 55.471 35.4549C56.2129 35.4549 56.2871 35.986 56.2871 36.281V36.3547C55.1594 36.3547 54.4323 36.6589 54.2078 37.2379C54.1539 37.3799 54.1268 37.5305 54.1281 37.6823C54.128 37.7788 54.1411 37.875 54.167 37.9681C54.2338 38.1928 54.3762 38.3878 54.5703 38.5207C54.7644 38.6536 54.9985 38.7163 55.2335 38.6982V38.6982ZM54.7884 37.5919C54.7884 36.9411 55.4988 36.7917 56.1758 36.7862H56.3094V37.4057C56.3079 37.476 56.2953 37.5457 56.2723 37.6122C56.2101 37.7905 56.0925 37.9445 55.9364 38.0519C55.7803 38.1593 55.5939 38.2145 55.4042 38.2096C55.322 38.2153 55.2395 38.2035 55.1623 38.1748C55.0851 38.1462 55.015 38.1015 54.9567 38.0437C54.8983 37.9858 54.8531 37.9163 54.8241 37.8396C54.7951 37.763 54.7829 37.681 54.7884 37.5993V37.5919Z" fill="white"/>
<path d="M59.2178 35.5418V37.4889C59.2178 37.9093 59.2845 38.2264 59.47 38.4108C59.5607 38.5041 59.6707 38.5768 59.7924 38.6239C59.914 38.671 60.0445 38.6914 60.1748 38.6837C60.3716 38.6898 60.5678 38.6598 60.7536 38.5952L60.7239 38.1084C60.6027 38.139 60.478 38.1538 60.3529 38.1526C59.9819 38.1526 59.8632 37.9019 59.8632 37.4594V35.5418H60.7907V35.0476H59.8632V34.0225L59.2178 34.1866V35.0421H58.6613V35.5362H59.2178V35.5418Z" fill="white"/>
<path d="M64.1071 38.6908C64.5165 38.7015 64.9236 38.6261 65.3016 38.4696L65.1903 38.0049C64.8762 38.137 64.537 38.2 64.1961 38.1893C63.5432 38.1893 62.9794 37.8205 62.9645 36.9503H65.4871C65.5008 36.85 65.5082 36.749 65.5094 36.6479C65.5094 35.9915 65.1978 34.9663 64.0255 34.9663C62.9794 34.9663 62.3413 35.8145 62.3413 36.8913C62.3413 37.9681 63.0016 38.6908 64.1071 38.6908ZM63.9736 35.431C64.7155 35.431 64.8861 36.0726 64.8787 36.4856H62.9719C63.0239 36.0302 63.3132 35.431 63.9736 35.431Z" fill="white"/>
<path d="M71.6451 38.6909C72 38.6983 72.3522 38.6278 72.6764 38.4844L72.5651 37.9976C72.3153 38.1179 72.0415 38.1809 71.7639 38.182C71.0516 38.182 70.5174 37.6731 70.5174 36.847C70.5174 36.1095 70.9626 35.4974 71.7861 35.4974C72.0489 35.4876 72.3097 35.5461 72.5429 35.667L72.6913 35.1655C72.4062 35.0405 72.0976 34.9777 71.7861 34.9811C70.6139 34.9811 69.8571 35.7776 69.8571 36.8765C69.8571 37.9755 70.5619 38.6909 71.6451 38.6909Z" fill="white"/>
<path d="M75.2065 33.3809H74.5535V38.6173H75.2065V33.3809Z" fill="white"/>
<path d="M78.6342 38.6981C78.8735 38.702 79.1095 38.6426 79.3181 38.5259C79.5267 38.4093 79.7004 38.2396 79.8213 38.0344H79.8361L79.8732 38.617H80.4519C80.4297 38.3367 80.4223 38.0122 80.4223 37.6435V35.0474H79.7694V37.2378C79.7696 37.3511 79.7495 37.4635 79.71 37.5697C79.641 37.7414 79.5225 37.889 79.3693 37.994C79.2162 38.0989 79.0353 38.1566 78.8494 38.1597C78.2558 38.1597 78.0481 37.7025 78.0481 37.0239V35.0474H77.3952V37.1364C77.3952 38.3884 78.0703 38.6981 78.6342 38.6981Z" fill="white"/>
<path d="M83.1823 38.0273H83.2045C83.3195 38.2415 83.4938 38.4186 83.7068 38.5375C83.9198 38.6564 84.1626 38.7123 84.4064 38.6985C85.2077 38.6985 86.0164 38.0642 86.0164 36.7882C86.0164 35.7041 85.3932 34.9666 84.5029 34.9666C84.2579 34.9538 84.0141 35.0083 83.7982 35.1241C83.5823 35.2399 83.4026 35.4124 83.2787 35.623H83.2639V33.3809H82.6184V37.6899C82.6184 38.007 82.6035 38.3684 82.5887 38.6118H83.1452L83.1823 38.0273ZM83.2639 36.5522C83.2668 36.4627 83.2793 36.3737 83.301 36.2867C83.3516 36.0606 83.4771 35.858 83.6573 35.7112C83.8376 35.5645 84.0622 35.4821 84.2952 35.4773C84.9926 35.4773 85.3636 36.0894 85.3636 36.8048C85.3636 37.6235 84.9555 38.1767 84.2729 38.1767C84.0477 38.1771 83.8289 38.1025 83.6514 37.9648C83.4738 37.8271 83.3479 37.6342 83.2935 37.417C83.2759 37.3395 83.266 37.2604 83.2639 37.181V36.5522Z" fill="white"/>
<path d="M99.809 60.8681C95.7432 68.2434 94.43 68.4278 94.1258 68.3135C93.408 68.0332 93.6176 65.1421 93.7808 64.493C93.9104 63.9854 94.069 63.4856 94.2557 62.9959C95.554 60.8386 97.3031 58.6075 99.5215 56.323C99.5701 56.2738 99.5984 56.2084 99.601 56.1395C99.6035 56.0706 99.5801 56.0033 99.5353 55.9506C99.4905 55.898 99.4275 55.8639 99.3588 55.8551C99.29 55.8462 99.2204 55.8632 99.1636 55.9026C96.7065 57.5974 94.8203 59.989 93.7511 62.7654C93.4395 63.2872 93.1594 63.8053 92.9035 64.3179C93.2821 62.2178 93.5495 60.0994 93.7048 57.9714C93.7048 57.9272 93.7159 57.8811 93.7177 57.8368C93.7187 57.8301 93.7187 57.8233 93.7177 57.8165C93.7573 57.2745 93.7889 56.7324 93.8123 56.1903C93.8159 56.1175 93.7904 56.0463 93.7414 55.9921C93.6925 55.9379 93.624 55.9051 93.5508 55.9008C93.5145 55.8986 93.4781 55.9035 93.4437 55.9152C93.4093 55.927 93.3776 55.9454 93.3504 55.9694C93.3231 55.9934 93.3009 56.0225 93.285 56.055C93.2692 56.0875 93.2599 56.1228 93.2578 56.1589L93.2207 56.6734C93.2159 56.7021 93.2159 56.7313 93.2207 56.76C93.2003 57.1288 93.1743 57.5123 93.1465 57.8884C92.8757 61.1926 89.4906 65.2933 88.1681 66.1156C87.76 64.5373 88.5001 63.0438 89.281 61.4692C90.0229 59.9738 90.7871 58.4268 90.5182 56.7711C90.51 56.7213 90.4884 56.6746 90.4558 56.636C90.4231 56.5974 90.3806 56.5683 90.3327 56.5517C90.2839 56.5362 90.2318 56.5343 90.182 56.5464C90.1323 56.5584 90.0869 56.5838 90.0507 56.6199C87.454 59.2013 85.9182 62.6179 84.4658 65.9478C85.486 62.4445 87.3111 57.2597 89.2049 52.3828C92.6735 47.5888 95.5021 42.6879 95.6839 38.8694C95.6851 38.8244 95.6754 38.7798 95.6555 38.7394C95.6357 38.699 95.6062 38.6639 95.5698 38.6373C95.5333 38.6107 95.4909 38.5932 95.4462 38.5864C95.4014 38.5796 95.3557 38.5837 95.3129 38.5983C93.868 39.1644 90.2325 48.1862 88.7375 52.0343L88.6837 52.1726C86.3244 55.4251 83.6757 58.6389 81.3645 61.4341L81.0659 61.8029L81.1048 61.6185C81.2681 60.8091 81.4313 59.9941 81.6094 59.2215C83.5681 57.3408 85.3636 55.2647 85.4211 53.9537C85.424 53.8944 85.4074 53.8358 85.374 53.7866C85.3406 53.7374 85.292 53.7003 85.2356 53.6808C84.9645 53.5706 84.6721 53.522 84.3798 53.5386C84.0874 53.5552 83.8025 53.6365 83.5458 53.7767C82.3383 54.4571 81.6594 56.4927 81.0974 58.9505C79.5894 60.3887 77.9906 61.7162 77.0594 62.4445C77.653 61.1539 77.9869 60.0476 77.7865 59.5092C77.4712 58.6223 76.9593 58.4029 76.5846 58.3808C75.6312 58.3162 74.5962 59.4354 74.1733 60.2522C73.6002 61.3585 73.7003 62.7986 74.3959 63.466C74.5716 63.632 74.7869 63.7508 75.0215 63.8111C75.2561 63.8714 75.5024 63.8713 75.7369 63.8108C74.8262 65.4389 73.6632 67.1482 72.6542 68.1807C71.9512 68.8998 71.5061 69.1026 71.3243 69.0362C71.2093 68.9994 71.1184 68.8094 71.0739 68.5144C70.7029 66.0861 71.7898 64.2404 72.9417 62.286C73.2811 61.7107 73.6336 61.1133 73.9452 60.5012C73.9786 60.4356 73.9845 60.3596 73.9616 60.2897C73.9386 60.2199 73.8887 60.162 73.8228 60.1287C73.7568 60.0954 73.6803 60.0896 73.6101 60.1124C73.5398 60.1352 73.4815 60.1849 73.4481 60.2504C73.1439 60.8478 72.797 61.4378 72.4613 62.0076C71.8953 62.9118 71.404 63.8602 70.9923 64.8434C70.9643 64.854 70.9385 64.8696 70.9162 64.8895L70.5675 65.2177C69.4237 66.292 68.3485 67.319 67.3419 68.2987C68.0969 66.4899 68.8462 64.6369 69.5678 62.8059C70.2429 61.1133 70.7771 59.7765 71.1128 59.0372C71.1406 58.9715 71.1417 58.8977 71.116 58.8311C71.0904 58.7646 71.0399 58.7105 70.9751 58.6801C70.9103 58.6497 70.8362 58.6453 70.7682 58.6678C70.7002 58.6904 70.6436 58.7381 70.6102 58.8011C69.4513 61.1787 68.1729 63.4969 66.7799 65.7468C66.1382 66.7591 65.5149 67.6626 64.875 68.5126C64.8194 68.5863 64.6617 68.7523 64.4929 68.9311C64.3853 69.0436 64.2685 69.169 64.1498 69.2999C64.1385 69.3127 64.1234 69.3216 64.1066 69.3252C64.0899 69.3288 64.0724 69.327 64.0568 69.3199C64.0412 69.3129 64.0283 69.3011 64.0199 69.2862C64.0116 69.2713 64.0084 69.2541 64.0107 69.2372C64.3816 66.2871 65.5502 63.1526 67.316 60.4108C67.3436 60.3672 67.3585 60.3168 67.359 60.2653C67.3595 60.2138 67.3456 60.1631 67.3189 60.119C67.2922 60.0748 67.2537 60.0389 67.2076 60.0153C67.1616 59.9916 67.1098 59.9811 67.0582 59.9849C66.1771 60.0586 65.3684 60.5841 64.7786 61.4599C63.0165 64.0948 62.5194 63.8772 62.5138 63.8735C62.1966 63.7094 62.3283 62.1034 62.5732 61.4765C62.5874 61.4389 62.5932 61.3985 62.5901 61.3584C62.587 61.3183 62.5752 61.2793 62.5554 61.2442C62.5357 61.2091 62.5084 61.1787 62.4756 61.1551C62.4428 61.1316 62.4052 61.1154 62.3654 61.1078C60.2453 60.7095 58.4944 64.9448 57.0847 68.3466C56.8157 68.9994 56.5616 69.6134 56.3298 70.1333C55.7845 71.3484 55.4024 71.5604 55.3467 71.5475C55.3467 71.5475 55.0555 71.4019 55.0258 70.0042C55.0261 69.5391 55.0596 69.0745 55.126 68.614C55.3115 68.1954 55.4821 67.8175 55.6101 67.5077C56.4615 65.5182 57.8211 61.9467 57.5261 61.1797C57.502 61.1178 57.4564 61.0664 57.3976 61.035C57.3387 61.0036 57.2705 60.994 57.2053 61.0082C56.1276 61.2497 54.9795 65.6897 54.5974 68.4278C53.401 71.0497 52.2918 72.853 51.6815 73.1387C51.5814 73.1848 51.5536 73.1756 51.4961 73.0797C50.7857 71.8942 50.1031 64.2589 51.4237 57.5916C55.3661 56.8284 59.3876 56.5479 63.3986 56.7563C63.4353 56.7594 63.4722 56.7549 63.5072 56.7434C63.5421 56.7318 63.5744 56.7133 63.6019 56.689C63.6295 56.6647 63.6518 56.6351 63.6675 56.602C63.6833 56.5689 63.6921 56.533 63.6935 56.4964C63.6975 56.4233 63.6723 56.3516 63.6233 56.297C63.5742 56.2424 63.5054 56.2093 63.4319 56.205C59.452 55.9978 55.4614 56.2671 51.5461 57.0071C51.9058 55.233 52.493 53.5122 53.2934 51.8868C53.3271 51.8215 53.3333 51.7456 53.3107 51.6757C53.2881 51.6059 53.2385 51.5478 53.1728 51.5143C53.1072 51.4808 53.0308 51.4746 52.9605 51.4971C52.8903 51.5196 52.8319 51.5689 52.7982 51.6342C51.9419 53.3718 51.3183 55.2135 50.9433 57.1122C46.2191 58.0341 43.166 59.299 43.114 59.3248C43.0781 59.3372 43.0451 59.3568 43.0171 59.3823C42.9891 59.4079 42.9666 59.4389 42.9511 59.4734C42.9356 59.508 42.9274 59.5453 42.927 59.5831C42.9266 59.6209 42.934 59.6584 42.9487 59.6933C42.9635 59.7281 42.9852 59.7596 43.0127 59.7858C43.0402 59.8119 43.0727 59.8322 43.1084 59.8454C43.144 59.8585 43.182 59.8643 43.22 59.8623C43.258 59.8603 43.2952 59.8505 43.3292 59.8337C43.3793 59.8134 46.297 58.6168 50.8246 57.7022C50.0437 61.7586 49.9974 66.0953 50.2459 69.204C50.1901 69.2427 50.1505 69.3005 50.1346 69.3663C49.7117 71.1695 48.6749 73.655 46.1486 75.2665C45.4845 75.6888 44.6016 76.0962 44.1732 75.6353C43.4572 74.8756 43.8986 72.1744 44.7593 69.4603C45.824 67.7511 46.6846 65.5883 47.3375 63.8016L47.3524 63.7592C47.3759 63.6966 47.3757 63.6277 47.3518 63.5652C47.3279 63.5028 47.282 63.4511 47.2225 63.4199C47.1632 63.3888 47.0947 63.3799 47.0293 63.3948C46.964 63.4097 46.9062 63.4474 46.8664 63.5011C46.0836 64.5668 45.0208 66.8605 44.2511 69.2169C43.5611 70.314 42.7672 71.2451 41.9121 71.6563C42.6606 70.2011 43.2393 68.6657 43.6371 67.0799C43.7317 66.7112 44.0081 65.5735 43.3255 64.9337C42.7839 64.434 41.9715 64.5318 41.4428 64.8341C40.202 65.5495 38.6402 68.1825 38.6606 70.1222C38.6606 71.0331 39.0316 71.7098 39.6974 72.0804C40.0512 72.2831 40.4473 72.4017 40.8549 72.427C40.2842 73.405 39.6367 74.3365 38.9184 75.2131C36.2493 78.4693 34.0958 79.9591 33.1499 79.1976C33.0942 79.1459 32.9644 78.7698 33.0886 77.7225C33.2482 76.4484 33.7731 74.4681 34.7172 72.3754C34.7654 72.2814 34.8099 72.191 34.8489 72.108C34.8575 72.0905 34.8638 72.0719 34.8674 72.0527C36.2604 69.0768 38.4899 65.9294 41.7025 64.2644C41.7349 64.2476 41.7637 64.2246 41.7871 64.1967C41.8106 64.1688 41.8283 64.1366 41.8392 64.102C41.8501 64.0673 41.8541 64.0308 41.8509 63.9946C41.8476 63.9584 41.8372 63.9232 41.8203 63.891C41.8034 63.8588 41.7802 63.8302 41.7522 63.8069C41.7242 63.7836 41.6918 63.766 41.6569 63.7552C41.622 63.7443 41.5853 63.7404 41.5489 63.7436C41.5125 63.7468 41.4771 63.7571 41.4447 63.7739C38.0893 65.5145 35.7726 68.8021 34.3351 71.8868C33.2853 74.127 28.7409 80.2356 27.2626 82.2012C27.2274 80.7519 27.2626 77.3298 28.1158 72.7386C28.9357 71.2046 29.7184 69.8309 30.4659 68.52C33.4726 63.2411 36.0712 58.6813 38.4417 48.4222C38.4557 48.3598 38.4474 48.2946 38.4184 48.2375C38.3894 48.1805 38.3415 48.1352 38.2827 48.1093C38.2239 48.0835 38.1579 48.0786 38.0959 48.0957C38.0339 48.1127 37.9798 48.1506 37.9428 48.2028C31.4508 57.4902 28.7428 66.4567 27.6206 72.3311C27.6076 72.4049 27.5928 72.4787 27.5798 72.5506C26.0235 75.4627 24.6188 78.4524 23.3711 81.5079C22.9334 77.7612 22.9371 73.4172 23.3582 68.708C25.3688 63.1765 27.4666 56.8448 29.9243 49.4179C32.3207 42.1735 35.0381 33.9648 38.3267 24.565C38.3474 24.5058 38.3472 24.4414 38.3262 24.3823C38.3053 24.3232 38.2647 24.273 38.2113 24.2398C38.1579 24.2066 38.0947 24.1924 38.0321 24.1996C37.9695 24.2067 37.9112 24.2348 37.8667 24.2792C33.9901 28.0996 29.609 37.6414 26.4335 49.1837C24.5786 55.9192 23.3563 62.546 22.811 68.5845C20.2791 75.5339 17.8827 81.1981 15.0689 86.1433C13.696 83.4809 12.7908 80.605 12.3924 77.6395C13.6907 74.9641 15.0745 71.99 16.2875 69.2003C20.1697 60.326 19.5316 59.7968 19.2237 59.5534C18.9696 59.3451 18.4558 59.2639 17.4598 60.0697C15.6476 61.5337 13.3383 64.9983 12.2662 69.44C11.6317 72.0961 11.4784 74.8433 11.8136 77.5529C10.7527 79.747 9.76035 81.731 8.99059 83.2282C8.9739 83.2605 8.96378 83.2958 8.96081 83.332C8.95784 83.3682 8.96207 83.4046 8.97327 83.4392C8.98446 83.4738 9.0024 83.5059 9.02606 83.5335C9.04972 83.5612 9.07863 83.584 9.11115 83.6006C9.14367 83.6172 9.17915 83.6273 9.21558 83.6302C9.25201 83.6332 9.28867 83.629 9.32346 83.6178C9.35825 83.6067 9.3905 83.5889 9.41836 83.5654C9.44622 83.5418 9.46914 83.5131 9.48583 83.4808C10.1721 82.1458 11.0291 80.4348 11.9528 78.5375C12.445 81.446 13.4078 84.2561 14.8037 86.8587C14.8269 86.9025 14.8615 86.9392 14.9039 86.9652C14.9463 86.9911 14.995 87.0053 15.0448 87.0062C15.0936 87.0062 15.1417 86.9934 15.184 86.9692C15.2263 86.9449 15.2615 86.91 15.2859 86.8679C17.9736 82.2288 20.2699 76.9758 22.6403 70.6293C22.3473 75.0545 22.4419 79.1349 22.9445 82.6363C22.9532 82.6967 22.9817 82.7526 23.0256 82.7952C23.0695 82.8378 23.1264 82.8648 23.1874 82.872C23.2483 82.8791 23.31 82.8661 23.3627 82.8348C23.4154 82.8035 23.4562 82.7557 23.4787 82.699C24.8161 79.3543 26.0755 76.6549 27.2663 74.3335C26.4613 79.5885 26.7228 82.9719 26.7247 83.0087C26.7291 83.0646 26.7505 83.1179 26.786 83.1614C26.8216 83.205 26.8696 83.2367 26.9237 83.2525C26.9778 83.2683 27.0354 83.2674 27.089 83.2499C27.1426 83.2324 27.1895 83.1991 27.2237 83.1544C27.4184 82.9 30.8907 78.3383 33.1461 74.9291C32.841 75.8854 32.6274 76.8682 32.5081 77.8645C32.3634 79.2787 32.6936 79.5387 32.7937 79.6253C33.0579 79.8426 33.3913 79.9589 33.7341 79.9535C35.3645 79.9535 37.607 77.6819 39.345 75.5615C40.1627 74.5625 40.8913 73.4946 41.5226 72.3699C41.6447 72.3419 41.7649 72.3062 41.8824 72.2629C42.5632 72.0085 43.1957 71.4904 43.7799 70.8063C43.1845 73.0926 42.9991 75.1909 43.767 76.0022C44.3234 76.5885 45.2211 76.4908 46.4472 75.7127C48.673 74.3022 49.7989 72.2648 50.3776 70.526C50.5501 71.9366 50.7838 72.947 51.0194 73.3379C51.0595 73.4168 51.1153 73.4868 51.1835 73.5436C51.2517 73.6004 51.3309 73.6427 51.4161 73.6681C51.5013 73.6935 51.5909 73.7013 51.6792 73.6911C51.7676 73.681 51.853 73.653 51.9301 73.6089C52.6906 73.2402 53.6699 71.5678 54.4694 69.9655V69.9858C54.499 71.3004 54.742 71.9587 55.2354 72.0583C55.7288 72.1578 56.2704 71.5936 56.838 70.3269C57.0736 69.7996 57.3295 69.1819 57.6003 68.5273C58.7132 65.8317 60.3659 61.8435 61.9462 61.6148C61.7515 62.4169 61.5753 63.9915 62.2578 64.3455C62.8978 64.6793 63.8178 63.8772 65.2423 61.7476C65.5414 61.2738 65.9743 60.898 66.4869 60.6671C64.8769 63.3333 63.8085 66.3203 63.4579 69.1487C63.4387 69.2841 63.464 69.4221 63.5301 69.542C63.5962 69.6619 63.6995 69.7574 63.8247 69.8142C63.9498 69.871 64.0901 69.8861 64.2245 69.8572C64.359 69.8283 64.4804 69.757 64.5708 69.6539C64.6858 69.5285 64.8027 69.405 64.9084 69.2851C65.1032 69.0805 65.2553 68.9164 65.3294 68.8205C65.9786 67.9613 66.6093 67.0449 67.2603 66.0197C67.7018 65.3246 68.121 64.6221 68.5253 63.9178C67.891 65.5035 67.1379 67.3602 66.3236 69.2796C58.5055 77.0108 55.3615 81.5374 56.7249 83.0751C56.8614 83.2447 57.034 83.3823 57.2302 83.4779C57.4264 83.5735 57.6415 83.6249 57.86 83.6283C57.9484 83.6283 58.0365 83.6203 58.1234 83.6043C60.5143 83.1895 63.6768 76.9186 66.7855 69.5912C67.9392 68.4481 69.2246 67.2071 70.6547 65.8612C70.4307 66.7427 70.3865 67.6599 70.5249 68.5587C70.6065 69.0915 70.8179 69.4161 71.1555 69.5248C71.6303 69.676 72.2517 69.3497 73.0548 68.5273C74.1232 67.4321 75.5255 65.3781 76.5345 63.4679L76.5698 63.4494C78.0761 62.3326 79.5189 61.1335 80.8915 59.8577C80.7784 60.3868 80.669 60.9308 80.5595 61.4784C80.4779 61.884 80.3944 62.2915 80.311 62.6953C77.0131 66.7112 75.4624 68.7578 75.7833 69.6318C75.8239 69.7383 75.8927 69.832 75.9825 69.9028C76.0724 69.9735 76.1798 70.0188 76.2934 70.0337C76.4629 70.0699 76.6357 70.0884 76.809 70.0891C77.2304 70.0907 77.6426 69.9668 77.9924 69.7332C79.4652 68.7726 80.2015 65.9386 80.8285 62.9405L81.7948 61.7679C83.7276 59.4244 85.9015 56.7895 87.9474 54.0809C85.5231 60.503 83.5736 66.5176 83.173 68.8721C83.1618 68.9382 83.1751 69.006 83.2104 69.063C83.2457 69.12 83.3007 69.1624 83.365 69.1822C83.4294 69.202 83.4988 69.198 83.5603 69.1708C83.6219 69.1436 83.6714 69.0951 83.6998 69.0344C84.1023 68.1733 84.4955 67.2717 84.8757 66.4014C86.2613 63.2245 87.6895 59.948 90.0303 57.4293C90.0303 58.6979 89.4312 59.9203 88.7932 61.2055C87.9492 62.9092 87.0756 64.67 87.7433 66.5766C87.7674 66.6448 87.8173 66.7011 87.8824 66.7334C87.9474 66.7658 88.0226 66.7717 88.092 66.7499C89.0992 66.4272 91.5569 63.7076 92.8701 60.833C92.6123 62.9312 92.2439 65.0146 91.7665 67.0744C91.7182 67.2274 91.67 67.3805 91.6273 67.5317C91.6072 67.6023 91.6161 67.6781 91.6521 67.7422C91.6881 67.8064 91.7482 67.8537 91.8193 67.8737C91.8904 67.8937 91.9666 67.8849 92.0311 67.8491C92.0956 67.8133 92.1432 67.7535 92.1634 67.6829C92.1745 67.6386 92.1894 67.5962 92.2024 67.552C92.2259 67.5226 92.2429 67.4887 92.2524 67.4524C92.2691 67.3786 92.284 67.3049 92.3007 67.233C92.5345 66.4961 92.8158 65.7749 93.1428 65.0738C93.0166 66.2391 92.9239 68.4167 93.9255 68.8076C94.0289 68.8481 94.139 68.8687 94.2501 68.8684C94.9735 68.8684 96.2422 67.9926 98.8594 63.6264C98.7134 64.1711 98.608 64.7258 98.544 65.2859C98.4179 66.5047 98.7054 66.737 98.8 66.8126C99.0305 67.0016 99.3211 67.1029 99.6198 67.0984C101.017 67.0984 102.923 65.1716 104.4 63.3702C105.089 62.5289 105.704 61.6294 106.236 60.6818C106.335 60.6594 106.432 60.6298 106.527 60.5933C107.114 60.3472 107.633 59.9639 108.039 59.476C107.568 61.3604 107.436 63.0714 108.074 63.7463C108.558 64.257 109.339 64.1777 110.395 63.5066C111.137 63.042 112.407 61.2239 113.761 59.299C114.303 58.5283 114.863 57.7336 115.379 57.0384C115.403 57.0094 115.42 56.9759 115.431 56.9399C115.441 56.9039 115.444 56.8661 115.44 56.8289C115.435 56.7916 115.423 56.7557 115.404 56.7234C115.385 56.691 115.359 56.6628 115.329 56.6405C115.298 56.6182 115.264 56.6023 115.227 56.5937C115.19 56.5852 115.152 56.5841 115.115 56.5906C115.078 56.5971 115.043 56.6111 115.011 56.6317C114.979 56.6522 114.952 56.679 114.932 56.7102C114.41 57.4091 113.848 58.2093 113.305 58.9818C112.042 60.7777 110.734 62.6345 110.094 63.0383C109.547 63.3849 108.822 63.7242 108.48 63.3628C107.881 62.7303 108.25 60.4753 108.972 58.2001C109.879 56.749 110.61 54.918 111.164 53.4061L111.177 53.3692C111.2 53.3066 111.199 53.2381 111.175 53.1761C111.151 53.1142 111.105 53.0629 111.046 53.0318C110.987 53.0001 110.918 52.9908 110.853 53.0057C110.788 53.0207 110.73 53.0588 110.691 53.1129C110.029 54.0127 109.133 55.9469 108.482 57.9438C107.926 58.8196 107.308 59.5645 106.627 59.9369C107.233 58.7405 107.704 57.4816 108.033 56.1829C108.113 55.8621 108.36 54.8922 107.755 54.3262C107.282 53.8892 106.574 53.974 106.114 54.2377C105.055 54.8461 103.721 57.0919 103.736 58.7458C103.736 59.5331 104.053 60.1176 104.635 60.4385C104.92 60.6017 105.236 60.7017 105.563 60.7316C105.089 61.535 104.554 62.3012 103.962 63.0235C101.723 65.7561 99.9222 67.0136 99.1394 66.3885C99.0801 66.324 98.954 65.8648 99.1803 64.6627C99.7571 61.5079 102.148 56.0225 106.36 53.8339C106.425 53.8001 106.473 53.7425 106.495 53.6736C106.518 53.6046 106.512 53.5298 106.479 53.4651C106.444 53.4018 106.386 53.3542 106.317 53.3322C106.248 53.3102 106.173 53.3156 106.108 53.3471C103.044 54.9568 100.998 58.0784 99.809 60.8681ZM95.0736 39.5331C94.6841 42.6197 92.6735 46.3811 90.0767 50.1978C92.0799 45.1937 94.0331 40.8662 95.0736 39.5331ZM83.8185 54.2506C84.0124 54.1391 84.2325 54.0806 84.4565 54.0809C84.5817 54.0825 84.7062 54.0986 84.8275 54.1289C84.629 55.1485 83.3436 56.6936 81.8375 58.2093C82.3309 56.2991 82.9282 54.7447 83.8185 54.245V54.2506ZM55.879 64.9411C56.2871 63.4328 56.6711 62.4906 56.9548 61.991C56.7898 62.782 56.3409 64.2275 55.5916 66.1009C55.6769 65.7155 55.7733 65.3228 55.879 64.9411ZM37.5532 49.7793C35.2922 58.9413 32.8197 63.2761 29.9818 68.26C29.4995 69.1063 29.0024 69.9784 28.4979 70.9022C30.1831 63.3673 33.253 56.2064 37.5532 49.7793V49.7793ZM26.9807 49.346C29.839 38.9597 33.8213 29.9305 37.3678 25.6786C34.2776 34.5511 31.6975 42.345 29.4086 49.2612C27.2496 55.7588 25.3762 61.4157 23.6049 66.4254C24.292 60.6558 25.418 54.9463 26.9732 49.346H26.9807ZM17.8289 60.5141C18.3853 60.0586 18.7099 59.9794 18.8286 59.9794C18.8465 59.9781 18.8643 59.9813 18.8806 59.9886C18.9715 60.1158 19.2367 61.1576 15.7088 69.1966C14.6349 71.6416 13.4366 74.2192 12.2922 76.6051C11.6282 68.6656 15.2581 62.5921 17.8215 60.5141H17.8289ZM41.1795 71.8683C40.7608 71.9042 40.3413 71.8094 39.9794 71.5973C39.486 71.3244 39.2374 70.8266 39.2282 70.1222C39.2115 68.3079 40.7584 65.8814 41.7378 65.3172C41.9353 65.2013 42.1595 65.1378 42.3888 65.1329C42.598 65.125 42.8024 65.1969 42.9601 65.3338C43.2643 65.6159 43.3144 66.1414 43.1122 66.9416C42.676 68.6583 42.0241 70.3135 41.172 71.8683H41.1795ZM58.0307 83.0751C57.8643 83.103 57.6935 83.0843 57.5372 83.0211C57.3809 82.958 57.2455 82.8528 57.1459 82.7174C56.6284 82.1329 56.6581 79.8134 65.7338 70.668C63.1407 76.6162 60.0691 82.7193 58.0232 83.0751H58.0307ZM76.1228 63.0788C75.6906 63.289 75.1564 63.4144 74.7799 63.053C74.2661 62.5607 74.2123 61.3641 74.6667 60.4901C75.0599 59.7323 75.8983 58.9155 76.503 58.9155H76.5457C76.848 58.9357 77.0891 59.192 77.2616 59.677C77.4341 60.1619 76.9278 61.53 76.1228 63.0788ZM77.6827 69.2944C77.4957 69.418 77.2848 69.5016 77.0634 69.5397C76.8421 69.5778 76.6152 69.5696 76.3973 69.5156C76.3157 69.499 76.3064 69.4751 76.3027 69.4658C76.0968 68.9035 77.8904 66.5618 80.0513 63.9085C79.4967 66.3774 78.8197 68.5513 77.6827 69.2944V69.2944ZM104.91 59.9757C104.507 59.7544 104.301 59.3451 104.296 58.7624C104.283 57.2413 105.576 55.2075 106.396 54.7373C106.557 54.6462 106.74 54.5973 106.926 54.5954C107.092 54.5886 107.254 54.6446 107.38 54.7521C107.625 54.9789 107.662 55.4085 107.497 56.0704C107.131 57.5092 106.587 58.8971 105.876 60.2025C105.538 60.2268 105.201 60.1476 104.91 59.9757V59.9757Z" fill="white"/>
</g>
<defs>
<clipPath id="clip0_64_28">
<rect width="122.449" height="120" fill="white" transform="translate(0.775513)"/>
</clipPath>
</defs>
</svg>
