<svg width="20" height="20" viewBox="0 0 20 20" fill="none" xmlns="http://www.w3.org/2000/svg">
<g clip-path="url(#clip0_401_2156)">
<path d="M19.998 5.88005C19.9511 4.81738 19.7789 4.0868 19.5323 3.45374C19.2779 2.78176 18.8865 2.18014 18.3738 1.68002C17.8727 1.1721 17.2661 0.777435 16.6007 0.527447C15.9629 0.281274 15.2348 0.109427 14.1703 0.0625732C13.0978 0.0117516 12.7573 0 10.0372 0C7.317 0 6.97652 0.0117516 5.908 0.0586052C4.84345 0.105459 4.11158 0.277459 3.47756 0.523479C2.80425 0.777435 2.20157 1.16814 1.70056 1.68002C1.19175 2.18014 0.796542 2.78573 0.545962 3.44992C0.299356 4.0868 0.127205 4.81341 0.0802692 5.87609C0.029358 6.9467 0.0175858 7.28658 0.0175858 10.002C0.0175858 12.7173 0.029358 13.0572 0.0762942 14.1239C0.12323 15.1865 0.295533 15.9171 0.542139 16.5502C0.796542 17.2221 1.19175 17.8238 1.70056 18.3239C2.20157 18.8318 2.80822 19.2265 3.47359 19.4765C4.11158 19.7226 4.83947 19.8945 5.90418 19.9413C6.97255 19.9883 7.31318 19.9999 10.0333 19.9999C12.7535 19.9999 13.094 19.9883 14.1625 19.9413C15.227 19.8945 15.9589 19.7226 16.5929 19.4765C17.9394 18.9568 19.004 17.8941 19.5245 16.5502C19.771 15.9133 19.9433 15.1865 19.9902 14.1239C20.0372 13.0572 20.0489 12.7173 20.0489 10.002C20.0489 7.28658 20.045 6.9467 19.998 5.88005ZM18.1938 14.0457C18.1507 15.0225 17.9863 15.5499 17.8494 15.9015C17.5127 16.7728 16.82 17.4643 15.9471 17.8004C15.5949 17.9372 15.0627 18.1012 14.088 18.1441C13.0313 18.1911 12.7144 18.2027 10.0411 18.2027C7.36791 18.2027 7.047 18.1911 5.99407 18.1441C5.0156 18.1012 4.48722 17.9372 4.13497 17.8004C3.70062 17.6402 3.30526 17.3862 2.98435 17.0541C2.65167 16.7298 2.39726 16.3391 2.23673 15.9055C2.09975 15.5539 1.93539 15.0225 1.89243 14.0497C1.84534 12.9948 1.83372 12.6783 1.83372 10.0097C1.83372 7.34122 1.84534 7.02087 1.89243 5.96995C1.93539 4.99319 2.09975 4.46575 2.23673 4.11412C2.39726 3.68038 2.65167 3.28586 2.98832 2.96536C3.31305 2.63327 3.70444 2.37931 4.13895 2.21921C4.4912 2.08247 5.02355 1.9184 5.99805 1.87537C7.0548 1.82851 7.37189 1.81676 10.045 1.81676C12.7221 1.81676 13.0391 1.82851 14.092 1.87537C15.0705 1.9184 15.5989 2.08247 15.9511 2.21921C16.3855 2.37931 16.7808 2.63327 17.1017 2.96536C17.4344 3.28967 17.6888 3.68038 17.8494 4.11412C17.9863 4.46575 18.1507 4.99701 18.1938 5.96995C18.2407 7.02484 18.2525 7.34122 18.2525 10.0097C18.2525 12.6783 18.2407 12.9908 18.1938 14.0457Z" fill="white"/>
<path d="M10.0369 4.86426C7.19552 4.86426 4.89014 7.16543 4.89014 10.002C4.89014 12.8385 7.19552 15.1397 10.0369 15.1397C12.8785 15.1397 15.1837 12.8385 15.1837 10.002C15.1837 7.16543 12.8785 4.86426 10.0369 4.86426ZM10.0369 13.3347C8.19356 13.3347 6.69833 11.8422 6.69833 10.002C6.69833 8.16172 8.19356 6.66927 10.0369 6.66927C11.8804 6.66927 13.3755 8.16172 13.3755 10.002C13.3755 11.8422 11.8804 13.3347 10.0369 13.3347Z" fill="white"/>
<path d="M16.5893 4.66134C16.5893 5.3237 16.0513 5.86076 15.3876 5.86076C14.7241 5.86076 14.186 5.3237 14.186 4.66134C14.186 3.99882 14.7241 3.46191 15.3876 3.46191C16.0513 3.46191 16.5893 3.99882 16.5893 4.66134Z" fill="white"/>
</g>
<defs>
<clipPath id="clip0_401_2156">
<rect width="20" height="20" fill="white"/>
</clipPath>
</defs>
</svg>
