<svg width="60" height="60" viewBox="0 0 60 60" fill="none" xmlns="http://www.w3.org/2000/svg">
<path fill-rule="evenodd" clip-rule="evenodd" d="M30 0C13.4317 0 0 13.4314 0 30C0 46.5686 13.4317 60 30 60C46.5683 60 60 46.5686 60 30C60 13.4314 46.5683 0 30 0ZM25.3687 40.9652L40.3688 31.5902C40.9167 31.247 41.25 30.6463 41.25 30C41.25 29.3537 40.9167 28.7531 40.3688 28.4098L25.3687 19.0348C24.7907 18.6731 24.0619 18.653 23.4659 18.9853C22.8698 19.3158 22.5 19.943 22.5 20.625V39.375C22.5 40.057 22.8698 40.6842 23.4659 41.0147C23.7492 41.1722 24.0623 41.25 24.375 41.25C24.7201 41.25 25.0652 41.1547 25.3687 40.9652Z" fill="#FF00B2"/>
</svg>
